<svg xmlns="http://www.w3.org/2000/svg" viewBox="0 0 32 32"><defs><style>.cls-1{fill:#ee3248;}</style></defs><title>taskrouter-red</title><g id="Rounder_Expanded_Red" data-name="Rounder Expanded Red"><polygon class="cls-1" points="26 12 32 9 26 6 26 12"/><path class="cls-1" d="M24,23a1,1,0,0,0-1-1H22c-3.2,0-5-2.8-6.8-6,1.8-3.2,3.6-6,6.8-6h1a1,1,0,0,0,1-1h0a1,1,0,0,0-1-1H22c-3.9,0-6.2,2.9-8,6-1.8-3.1-4.1-6-8-6H1a1,1,0,0,0,0,2H6c3.2,0,5,2.8,6.8,6C11,19.2,9.2,22,6,22H1a1,1,0,0,0,0,2H6c3.9,0,6.2-2.9,8-6,1.8,3.1,4.1,6,8,6h1a1,1,0,0,0,1-1Z"/><polygon class="cls-1" points="26 26 32 23 26 20 26 26"/></g></svg>